<mxfile host="app.diagrams.net" modified="2023-05-16T13:40:05.933Z" agent="Mozilla/5.0 (Macintosh; Intel Mac OS X 10_15_7) AppleWebKit/605.1.15 (KHTML, like Gecko) Version/15.4 Safari/605.1.15" etag="JxIUNrJe6C9CnoSUp1cc" version="21.3.2" type="device">
  <diagram name="Page-1" id="7Ak154p-ea4hJx8f2I8y">
    <mxGraphModel dx="1115" dy="1049" grid="1" gridSize="10" guides="1" tooltips="1" connect="1" arrows="1" fold="1" page="1" pageScale="1" pageWidth="827" pageHeight="1169" math="0" shadow="0">
      <root>
        <mxCell id="0" />
        <mxCell id="1" parent="0" />
        <mxCell id="547G3fy2JJTA3OfubOqT-1" value="Crane" style="rounded=1;whiteSpace=wrap;html=1;" vertex="1" parent="1">
          <mxGeometry x="250" y="70" width="120" height="60" as="geometry" />
        </mxCell>
        <mxCell id="547G3fy2JJTA3OfubOqT-2" value="Port" style="rounded=1;whiteSpace=wrap;html=1;" vertex="1" parent="1">
          <mxGeometry x="430" y="70" width="120" height="60" as="geometry" />
        </mxCell>
        <mxCell id="547G3fy2JJTA3OfubOqT-3" value="Staintrainer(suwnica)&lt;br&gt;(1 for a field)" style="rounded=1;whiteSpace=wrap;html=1;" vertex="1" parent="1">
          <mxGeometry x="70" y="70" width="120" height="60" as="geometry" />
        </mxCell>
        <mxCell id="547G3fy2JJTA3OfubOqT-4" value="Operator" style="rounded=1;whiteSpace=wrap;html=1;" vertex="1" parent="1">
          <mxGeometry x="610" y="70" width="120" height="60" as="geometry" />
        </mxCell>
        <mxCell id="547G3fy2JJTA3OfubOqT-5" value="" style="rounded=0;whiteSpace=wrap;html=1;" vertex="1" parent="1">
          <mxGeometry x="125" y="150" width="10" height="690" as="geometry" />
        </mxCell>
        <mxCell id="547G3fy2JJTA3OfubOqT-6" value="" style="rounded=0;whiteSpace=wrap;html=1;" vertex="1" parent="1">
          <mxGeometry x="305" y="150" width="10" height="690" as="geometry" />
        </mxCell>
        <mxCell id="547G3fy2JJTA3OfubOqT-7" value="" style="rounded=0;whiteSpace=wrap;html=1;" vertex="1" parent="1">
          <mxGeometry x="485" y="150" width="10" height="690" as="geometry" />
        </mxCell>
        <mxCell id="547G3fy2JJTA3OfubOqT-8" value="" style="rounded=0;whiteSpace=wrap;html=1;" vertex="1" parent="1">
          <mxGeometry x="665" y="150" width="10" height="690" as="geometry" />
        </mxCell>
        <mxCell id="547G3fy2JJTA3OfubOqT-10" value="Container arrival" style="text;html=1;strokeColor=none;fillColor=none;align=center;verticalAlign=middle;whiteSpace=wrap;rounded=0;" vertex="1" parent="1">
          <mxGeometry x="30" y="20" width="110" height="30" as="geometry" />
        </mxCell>
        <mxCell id="547G3fy2JJTA3OfubOqT-11" value="msg: n of containers, when&lt;br&gt;Call for proposal" style="endArrow=classic;html=1;rounded=0;" edge="1" parent="1">
          <mxGeometry x="-0.0078" y="22" width="50" height="50" relative="1" as="geometry">
            <mxPoint x="660" y="200" as="sourcePoint" />
            <mxPoint x="500" y="200" as="targetPoint" />
            <mxPoint as="offset" />
          </mxGeometry>
        </mxCell>
        <mxCell id="547G3fy2JJTA3OfubOqT-13" value="msg: look for crane&lt;br&gt;Call for proposal" style="endArrow=classic;html=1;rounded=0;exitX=-0.271;exitY=0.13;exitDx=0;exitDy=0;exitPerimeter=0;entryX=1.141;entryY=0.13;entryDx=0;entryDy=0;entryPerimeter=0;" edge="1" parent="1">
          <mxGeometry x="-0.0078" y="22" width="50" height="50" relative="1" as="geometry">
            <mxPoint x="481" y="250" as="sourcePoint" />
            <mxPoint x="315" y="250" as="targetPoint" />
            <mxPoint as="offset" />
          </mxGeometry>
        </mxCell>
        <mxCell id="547G3fy2JJTA3OfubOqT-17" value="" style="endArrow=classic;html=1;rounded=0;" edge="1" parent="1">
          <mxGeometry width="50" height="50" relative="1" as="geometry">
            <mxPoint x="300" y="300" as="sourcePoint" />
            <mxPoint x="300" y="330" as="targetPoint" />
            <Array as="points">
              <mxPoint x="290" y="299" />
              <mxPoint x="280" y="310" />
              <mxPoint x="280" y="320" />
              <mxPoint x="290" y="330" />
            </Array>
          </mxGeometry>
        </mxCell>
        <mxCell id="547G3fy2JJTA3OfubOqT-18" value="Find cranes available" style="text;html=1;strokeColor=none;fillColor=none;align=center;verticalAlign=middle;whiteSpace=wrap;rounded=0;" vertex="1" parent="1">
          <mxGeometry x="200" y="300" width="80" height="30" as="geometry" />
        </mxCell>
        <mxCell id="547G3fy2JJTA3OfubOqT-19" value="msg: check space availability&lt;br&gt;Call for proposal" style="endArrow=classic;html=1;rounded=0;exitX=-0.271;exitY=0.13;exitDx=0;exitDy=0;exitPerimeter=0;" edge="1" parent="1">
          <mxGeometry x="-0.0078" y="22" width="50" height="50" relative="1" as="geometry">
            <mxPoint x="305" y="360" as="sourcePoint" />
            <mxPoint x="140" y="360" as="targetPoint" />
            <mxPoint as="offset" />
          </mxGeometry>
        </mxCell>
        <mxCell id="547G3fy2JJTA3OfubOqT-20" value="" style="endArrow=classic;html=1;rounded=0;" edge="1" parent="1">
          <mxGeometry width="50" height="50" relative="1" as="geometry">
            <mxPoint x="140" y="550.08" as="sourcePoint" />
            <mxPoint x="303" y="550.08" as="targetPoint" />
            <Array as="points">
              <mxPoint x="178.89" y="550" />
            </Array>
          </mxGeometry>
        </mxCell>
        <mxCell id="547G3fy2JJTA3OfubOqT-21" value="msg: cost&lt;br&gt;propose" style="edgeLabel;html=1;align=center;verticalAlign=middle;resizable=0;points=[];" vertex="1" connectable="0" parent="547G3fy2JJTA3OfubOqT-20">
          <mxGeometry x="0.0427" y="1" relative="1" as="geometry">
            <mxPoint x="-3" y="17" as="offset" />
          </mxGeometry>
        </mxCell>
        <mxCell id="547G3fy2JJTA3OfubOqT-22" value="" style="endArrow=classic;html=1;rounded=0;exitX=-0.028;exitY=0.402;exitDx=0;exitDy=0;exitPerimeter=0;entryX=-0.112;entryY=0.486;entryDx=0;entryDy=0;entryPerimeter=0;" edge="1" parent="1">
          <mxGeometry width="50" height="50" relative="1" as="geometry">
            <mxPoint x="125" y="400" as="sourcePoint" />
            <mxPoint x="124" y="431" as="targetPoint" />
            <Array as="points">
              <mxPoint x="110" y="400" />
              <mxPoint x="100" y="411" />
              <mxPoint x="100" y="421" />
              <mxPoint x="110" y="431" />
            </Array>
          </mxGeometry>
        </mxCell>
        <mxCell id="547G3fy2JJTA3OfubOqT-23" value="Find if space available" style="text;html=1;strokeColor=none;fillColor=none;align=center;verticalAlign=middle;whiteSpace=wrap;rounded=0;" vertex="1" parent="1">
          <mxGeometry x="40" y="401" width="60" height="30" as="geometry" />
        </mxCell>
        <mxCell id="547G3fy2JJTA3OfubOqT-24" value="" style="endArrow=classic;html=1;rounded=0;entryX=-0.139;entryY=0.787;entryDx=0;entryDy=0;entryPerimeter=0;" edge="1" parent="1">
          <mxGeometry width="50" height="50" relative="1" as="geometry">
            <mxPoint x="315" y="651.01" as="sourcePoint" />
            <mxPoint x="477.5" y="651.1200000000001" as="targetPoint" />
            <Array as="points">
              <mxPoint x="353.89" y="650.9300000000001" />
            </Array>
          </mxGeometry>
        </mxCell>
        <mxCell id="547G3fy2JJTA3OfubOqT-25" value="msg: crane_id,&amp;nbsp;cost&lt;br&gt;propose/refuse" style="edgeLabel;html=1;align=center;verticalAlign=middle;resizable=0;points=[];" vertex="1" connectable="0" parent="547G3fy2JJTA3OfubOqT-24">
          <mxGeometry x="0.0427" y="1" relative="1" as="geometry">
            <mxPoint x="-3" y="-19" as="offset" />
          </mxGeometry>
        </mxCell>
        <mxCell id="547G3fy2JJTA3OfubOqT-27" value="" style="endArrow=classic;html=1;rounded=0;" edge="1" parent="1">
          <mxGeometry width="50" height="50" relative="1" as="geometry">
            <mxPoint x="135" y="440.08" as="sourcePoint" />
            <mxPoint x="298" y="440.08" as="targetPoint" />
            <Array as="points">
              <mxPoint x="173.89" y="440" />
            </Array>
          </mxGeometry>
        </mxCell>
        <mxCell id="547G3fy2JJTA3OfubOqT-28" value="msg: no&lt;br&gt;refuse" style="edgeLabel;html=1;align=center;verticalAlign=middle;resizable=0;points=[];" vertex="1" connectable="0" parent="547G3fy2JJTA3OfubOqT-27">
          <mxGeometry x="0.0427" y="1" relative="1" as="geometry">
            <mxPoint x="-3" y="17" as="offset" />
          </mxGeometry>
        </mxCell>
        <mxCell id="547G3fy2JJTA3OfubOqT-29" value="" style="endArrow=classic;html=1;rounded=0;exitX=-0.028;exitY=0.402;exitDx=0;exitDy=0;exitPerimeter=0;entryX=-0.112;entryY=0.486;entryDx=0;entryDy=0;entryPerimeter=0;" edge="1" parent="1">
          <mxGeometry width="50" height="50" relative="1" as="geometry">
            <mxPoint x="125" y="490" as="sourcePoint" />
            <mxPoint x="124" y="521" as="targetPoint" />
            <Array as="points">
              <mxPoint x="110" y="490" />
              <mxPoint x="100" y="501" />
              <mxPoint x="100" y="511" />
              <mxPoint x="110" y="521" />
            </Array>
          </mxGeometry>
        </mxCell>
        <mxCell id="547G3fy2JJTA3OfubOqT-30" value="Count predicted cost" style="text;html=1;strokeColor=none;fillColor=none;align=center;verticalAlign=middle;whiteSpace=wrap;rounded=0;" vertex="1" parent="1">
          <mxGeometry x="40" y="491" width="60" height="30" as="geometry" />
        </mxCell>
        <mxCell id="547G3fy2JJTA3OfubOqT-31" value="" style="endArrow=classic;html=1;rounded=0;exitX=-0.028;exitY=0.402;exitDx=0;exitDy=0;exitPerimeter=0;entryX=-0.112;entryY=0.486;entryDx=0;entryDy=0;entryPerimeter=0;" edge="1" parent="1">
          <mxGeometry width="50" height="50" relative="1" as="geometry">
            <mxPoint x="305" y="600" as="sourcePoint" />
            <mxPoint x="304" y="631" as="targetPoint" />
            <Array as="points">
              <mxPoint x="290" y="600" />
              <mxPoint x="280" y="611" />
              <mxPoint x="280" y="621" />
              <mxPoint x="290" y="631" />
            </Array>
          </mxGeometry>
        </mxCell>
        <mxCell id="547G3fy2JJTA3OfubOqT-32" value="Choose best proposal + cost of crane usage" style="text;html=1;strokeColor=none;fillColor=none;align=center;verticalAlign=middle;whiteSpace=wrap;rounded=0;" vertex="1" parent="1">
          <mxGeometry x="190" y="601" width="90" height="30" as="geometry" />
        </mxCell>
        <mxCell id="547G3fy2JJTA3OfubOqT-35" value="" style="endArrow=classic;html=1;rounded=0;entryX=-0.139;entryY=0.787;entryDx=0;entryDy=0;entryPerimeter=0;" edge="1" parent="1">
          <mxGeometry width="50" height="50" relative="1" as="geometry">
            <mxPoint x="495" y="760.01" as="sourcePoint" />
            <mxPoint x="657.5" y="760.1200000000001" as="targetPoint" />
            <Array as="points">
              <mxPoint x="533.89" y="759.9300000000001" />
            </Array>
          </mxGeometry>
        </mxCell>
        <mxCell id="547G3fy2JJTA3OfubOqT-36" value="msg: transaction_id&lt;br&gt;propose/refuse" style="edgeLabel;html=1;align=center;verticalAlign=middle;resizable=0;points=[];" vertex="1" connectable="0" parent="547G3fy2JJTA3OfubOqT-35">
          <mxGeometry x="0.0427" y="1" relative="1" as="geometry">
            <mxPoint x="-3" y="-19" as="offset" />
          </mxGeometry>
        </mxCell>
        <mxCell id="547G3fy2JJTA3OfubOqT-38" value="" style="endArrow=classic;html=1;rounded=0;exitX=-0.028;exitY=0.402;exitDx=0;exitDy=0;exitPerimeter=0;entryX=-0.112;entryY=0.486;entryDx=0;entryDy=0;entryPerimeter=0;" edge="1" parent="1">
          <mxGeometry width="50" height="50" relative="1" as="geometry">
            <mxPoint x="485" y="680" as="sourcePoint" />
            <mxPoint x="484" y="711" as="targetPoint" />
            <Array as="points">
              <mxPoint x="470" y="680" />
              <mxPoint x="460" y="691" />
              <mxPoint x="460" y="701" />
              <mxPoint x="470" y="711" />
            </Array>
          </mxGeometry>
        </mxCell>
        <mxCell id="547G3fy2JJTA3OfubOqT-39" value="Choose best proposal" style="text;html=1;strokeColor=none;fillColor=none;align=center;verticalAlign=middle;whiteSpace=wrap;rounded=0;" vertex="1" parent="1">
          <mxGeometry x="400" y="681" width="60" height="30" as="geometry" />
        </mxCell>
        <mxCell id="547G3fy2JJTA3OfubOqT-40" value="" style="endArrow=classic;html=1;rounded=0;" edge="1" parent="1">
          <mxGeometry width="50" height="50" relative="1" as="geometry">
            <mxPoint x="660" y="800" as="sourcePoint" />
            <mxPoint x="320" y="800" as="targetPoint" />
            <Array as="points" />
          </mxGeometry>
        </mxCell>
        <mxCell id="547G3fy2JJTA3OfubOqT-41" value="msg:transaction_id&lt;br&gt;accept proposal / reject proposal" style="edgeLabel;html=1;align=center;verticalAlign=middle;resizable=0;points=[];" vertex="1" connectable="0" parent="547G3fy2JJTA3OfubOqT-40">
          <mxGeometry x="0.0427" y="1" relative="1" as="geometry">
            <mxPoint x="-3" y="19" as="offset" />
          </mxGeometry>
        </mxCell>
        <mxCell id="547G3fy2JJTA3OfubOqT-42" value="" style="endArrow=classic;html=1;rounded=0;" edge="1" parent="1">
          <mxGeometry width="50" height="50" relative="1" as="geometry">
            <mxPoint x="480" y="730" as="sourcePoint" />
            <mxPoint x="320" y="730" as="targetPoint" />
            <Array as="points">
              <mxPoint x="380" y="730" />
            </Array>
          </mxGeometry>
        </mxCell>
        <mxCell id="547G3fy2JJTA3OfubOqT-43" value="reject proposal of all who&lt;br&gt;had not best offer" style="edgeLabel;html=1;align=center;verticalAlign=middle;resizable=0;points=[];" vertex="1" connectable="0" parent="547G3fy2JJTA3OfubOqT-42">
          <mxGeometry x="0.0427" y="1" relative="1" as="geometry">
            <mxPoint x="3" y="19" as="offset" />
          </mxGeometry>
        </mxCell>
        <mxCell id="547G3fy2JJTA3OfubOqT-44" value="" style="endArrow=classic;html=1;rounded=0;" edge="1" parent="1">
          <mxGeometry width="50" height="50" relative="1" as="geometry">
            <mxPoint x="300" y="650" as="sourcePoint" />
            <mxPoint x="140" y="650" as="targetPoint" />
            <Array as="points">
              <mxPoint x="200" y="650" />
            </Array>
          </mxGeometry>
        </mxCell>
        <mxCell id="547G3fy2JJTA3OfubOqT-45" value="reject proposal of all who&lt;br&gt;had not best offer" style="edgeLabel;html=1;align=center;verticalAlign=middle;resizable=0;points=[];" vertex="1" connectable="0" parent="547G3fy2JJTA3OfubOqT-44">
          <mxGeometry x="0.0427" y="1" relative="1" as="geometry">
            <mxPoint x="3" y="19" as="offset" />
          </mxGeometry>
        </mxCell>
        <mxCell id="547G3fy2JJTA3OfubOqT-46" value="" style="endArrow=classic;html=1;rounded=0;" edge="1" parent="1">
          <mxGeometry width="50" height="50" relative="1" as="geometry">
            <mxPoint x="300" y="800" as="sourcePoint" />
            <mxPoint x="135" y="800" as="targetPoint" />
            <Array as="points" />
          </mxGeometry>
        </mxCell>
        <mxCell id="547G3fy2JJTA3OfubOqT-47" value="msg:transaction_id&lt;br&gt;accept proposal /&lt;br&gt;&amp;nbsp;reject proposal" style="edgeLabel;html=1;align=center;verticalAlign=middle;resizable=0;points=[];" vertex="1" connectable="0" parent="547G3fy2JJTA3OfubOqT-46">
          <mxGeometry x="0.0427" y="1" relative="1" as="geometry">
            <mxPoint x="6" y="29" as="offset" />
          </mxGeometry>
        </mxCell>
        <mxCell id="547G3fy2JJTA3OfubOqT-86" value="Crane" style="rounded=1;whiteSpace=wrap;html=1;" vertex="1" parent="1">
          <mxGeometry x="284" y="1030" width="120" height="60" as="geometry" />
        </mxCell>
        <mxCell id="547G3fy2JJTA3OfubOqT-87" value="Port" style="rounded=1;whiteSpace=wrap;html=1;" vertex="1" parent="1">
          <mxGeometry x="464" y="1030" width="120" height="60" as="geometry" />
        </mxCell>
        <mxCell id="547G3fy2JJTA3OfubOqT-88" value="Staintrainer(suwnica)&lt;br&gt;(1 for a field)" style="rounded=1;whiteSpace=wrap;html=1;" vertex="1" parent="1">
          <mxGeometry x="104" y="1030" width="120" height="60" as="geometry" />
        </mxCell>
        <mxCell id="547G3fy2JJTA3OfubOqT-89" value="Operator" style="rounded=1;whiteSpace=wrap;html=1;" vertex="1" parent="1">
          <mxGeometry x="644" y="1030" width="120" height="60" as="geometry" />
        </mxCell>
        <mxCell id="547G3fy2JJTA3OfubOqT-90" value="" style="rounded=0;whiteSpace=wrap;html=1;" vertex="1" parent="1">
          <mxGeometry x="159" y="1110" width="10" height="450" as="geometry" />
        </mxCell>
        <mxCell id="547G3fy2JJTA3OfubOqT-91" value="" style="rounded=0;whiteSpace=wrap;html=1;" vertex="1" parent="1">
          <mxGeometry x="339" y="1110" width="10" height="450" as="geometry" />
        </mxCell>
        <mxCell id="547G3fy2JJTA3OfubOqT-92" value="" style="rounded=0;whiteSpace=wrap;html=1;" vertex="1" parent="1">
          <mxGeometry x="519" y="1110" width="10" height="450" as="geometry" />
        </mxCell>
        <mxCell id="547G3fy2JJTA3OfubOqT-93" value="" style="rounded=0;whiteSpace=wrap;html=1;" vertex="1" parent="1">
          <mxGeometry x="699" y="1110" width="10" height="450" as="geometry" />
        </mxCell>
        <mxCell id="547G3fy2JJTA3OfubOqT-94" value="Container &amp;nbsp;departure" style="text;html=1;strokeColor=none;fillColor=none;align=center;verticalAlign=middle;whiteSpace=wrap;rounded=0;" vertex="1" parent="1">
          <mxGeometry x="64" y="980" width="116" height="30" as="geometry" />
        </mxCell>
        <mxCell id="547G3fy2JJTA3OfubOqT-95" value="msg: list&amp;lt;id_container&amp;gt;, when&lt;br&gt;Call for proposal" style="endArrow=classic;html=1;rounded=0;" edge="1" parent="1">
          <mxGeometry x="-0.0078" y="22" width="50" height="50" relative="1" as="geometry">
            <mxPoint x="694" y="1160" as="sourcePoint" />
            <mxPoint x="534" y="1160" as="targetPoint" />
            <mxPoint as="offset" />
          </mxGeometry>
        </mxCell>
        <mxCell id="547G3fy2JJTA3OfubOqT-96" value="msg: who has container&lt;br&gt;Call for proposal" style="endArrow=classic;html=1;rounded=0;exitX=-0.271;exitY=0.13;exitDx=0;exitDy=0;exitPerimeter=0;" edge="1" parent="1">
          <mxGeometry x="-0.0078" y="22" width="50" height="50" relative="1" as="geometry">
            <mxPoint x="514" y="1190" as="sourcePoint" />
            <mxPoint x="169" y="1190" as="targetPoint" />
            <mxPoint as="offset" />
          </mxGeometry>
        </mxCell>
        <mxCell id="547G3fy2JJTA3OfubOqT-97" value="" style="endArrow=classic;html=1;rounded=0;" edge="1" parent="1">
          <mxGeometry width="50" height="50" relative="1" as="geometry">
            <mxPoint x="154" y="1201" as="sourcePoint" />
            <mxPoint x="154" y="1231" as="targetPoint" />
            <Array as="points">
              <mxPoint x="144" y="1200" />
              <mxPoint x="134" y="1211" />
              <mxPoint x="134" y="1221" />
              <mxPoint x="144" y="1231" />
            </Array>
          </mxGeometry>
        </mxCell>
        <mxCell id="547G3fy2JJTA3OfubOqT-98" value="Do I have this container" style="text;html=1;strokeColor=none;fillColor=none;align=center;verticalAlign=middle;whiteSpace=wrap;rounded=0;" vertex="1" parent="1">
          <mxGeometry x="50" y="1201" width="84" height="30" as="geometry" />
        </mxCell>
        <mxCell id="547G3fy2JJTA3OfubOqT-106" value="" style="endArrow=classic;html=1;rounded=0;" edge="1" parent="1">
          <mxGeometry width="50" height="50" relative="1" as="geometry">
            <mxPoint x="169" y="1330.08" as="sourcePoint" />
            <mxPoint x="332" y="1330.08" as="targetPoint" />
            <Array as="points">
              <mxPoint x="207.89" y="1330" />
            </Array>
          </mxGeometry>
        </mxCell>
        <mxCell id="547G3fy2JJTA3OfubOqT-107" value="msg: look for crane&lt;br style=&quot;border-color: var(--border-color);&quot;&gt;Call for proposal" style="edgeLabel;html=1;align=center;verticalAlign=middle;resizable=0;points=[];" vertex="1" connectable="0" parent="547G3fy2JJTA3OfubOqT-106">
          <mxGeometry x="0.0427" y="1" relative="1" as="geometry">
            <mxPoint x="-3" y="17" as="offset" />
          </mxGeometry>
        </mxCell>
        <mxCell id="547G3fy2JJTA3OfubOqT-124" value="" style="endArrow=classic;html=1;rounded=0;" edge="1" parent="1">
          <mxGeometry width="50" height="50" relative="1" as="geometry">
            <mxPoint x="484" y="201" as="sourcePoint" />
            <mxPoint x="484" y="231" as="targetPoint" />
            <Array as="points">
              <mxPoint x="474" y="200" />
              <mxPoint x="464" y="211" />
              <mxPoint x="464" y="221" />
              <mxPoint x="474" y="231" />
            </Array>
          </mxGeometry>
        </mxCell>
        <mxCell id="547G3fy2JJTA3OfubOqT-125" value="Register container" style="text;html=1;strokeColor=none;fillColor=none;align=center;verticalAlign=middle;whiteSpace=wrap;rounded=0;" vertex="1" parent="1">
          <mxGeometry x="404" y="201" width="60" height="30" as="geometry" />
        </mxCell>
        <mxCell id="547G3fy2JJTA3OfubOqT-126" value="" style="endArrow=classic;html=1;rounded=0;" edge="1" parent="1">
          <mxGeometry width="50" height="50" relative="1" as="geometry">
            <mxPoint x="169" y="1270.08" as="sourcePoint" />
            <mxPoint x="510" y="1270" as="targetPoint" />
            <Array as="points">
              <mxPoint x="207.89" y="1270" />
            </Array>
          </mxGeometry>
        </mxCell>
        <mxCell id="547G3fy2JJTA3OfubOqT-127" value="msg: no&lt;br&gt;refuse" style="edgeLabel;html=1;align=center;verticalAlign=middle;resizable=0;points=[];" vertex="1" connectable="0" parent="547G3fy2JJTA3OfubOqT-126">
          <mxGeometry x="0.0427" y="1" relative="1" as="geometry">
            <mxPoint x="-3" y="17" as="offset" />
          </mxGeometry>
        </mxCell>
        <mxCell id="547G3fy2JJTA3OfubOqT-128" value="" style="endArrow=classic;html=1;rounded=0;exitX=-0.028;exitY=0.402;exitDx=0;exitDy=0;exitPerimeter=0;entryX=-0.112;entryY=0.486;entryDx=0;entryDy=0;entryPerimeter=0;" edge="1" parent="1">
          <mxGeometry width="50" height="50" relative="1" as="geometry">
            <mxPoint x="335" y="1370" as="sourcePoint" />
            <mxPoint x="334" y="1401" as="targetPoint" />
            <Array as="points">
              <mxPoint x="320" y="1370" />
              <mxPoint x="310" y="1381" />
              <mxPoint x="310" y="1391" />
              <mxPoint x="320" y="1401" />
            </Array>
          </mxGeometry>
        </mxCell>
        <mxCell id="547G3fy2JJTA3OfubOqT-129" value="Calculate cost" style="text;html=1;strokeColor=none;fillColor=none;align=center;verticalAlign=middle;whiteSpace=wrap;rounded=0;" vertex="1" parent="1">
          <mxGeometry x="250" y="1371" width="60" height="30" as="geometry" />
        </mxCell>
        <mxCell id="547G3fy2JJTA3OfubOqT-133" value="" style="endArrow=classic;html=1;rounded=0;" edge="1" parent="1">
          <mxGeometry width="50" height="50" relative="1" as="geometry">
            <mxPoint x="334" y="1430" as="sourcePoint" />
            <mxPoint x="169" y="1430" as="targetPoint" />
            <Array as="points" />
          </mxGeometry>
        </mxCell>
        <mxCell id="547G3fy2JJTA3OfubOqT-134" value="msg: cost&lt;br style=&quot;border-color: var(--border-color);&quot;&gt;propose" style="edgeLabel;html=1;align=center;verticalAlign=middle;resizable=0;points=[];" vertex="1" connectable="0" parent="547G3fy2JJTA3OfubOqT-133">
          <mxGeometry x="0.0427" y="1" relative="1" as="geometry">
            <mxPoint x="6" y="19" as="offset" />
          </mxGeometry>
        </mxCell>
        <mxCell id="547G3fy2JJTA3OfubOqT-135" value="" style="endArrow=classic;html=1;rounded=0;" edge="1" parent="1">
          <mxGeometry width="50" height="50" relative="1" as="geometry">
            <mxPoint x="169" y="1480.08" as="sourcePoint" />
            <mxPoint x="332" y="1480.08" as="targetPoint" />
            <Array as="points">
              <mxPoint x="207.89" y="1480" />
            </Array>
          </mxGeometry>
        </mxCell>
        <mxCell id="547G3fy2JJTA3OfubOqT-136" value="reject to all except best offers" style="edgeLabel;html=1;align=center;verticalAlign=middle;resizable=0;points=[];" vertex="1" connectable="0" parent="547G3fy2JJTA3OfubOqT-135">
          <mxGeometry x="0.0427" y="1" relative="1" as="geometry">
            <mxPoint x="-3" y="17" as="offset" />
          </mxGeometry>
        </mxCell>
        <mxCell id="547G3fy2JJTA3OfubOqT-137" value="" style="endArrow=classic;html=1;rounded=0;" edge="1" parent="1">
          <mxGeometry width="50" height="50" relative="1" as="geometry">
            <mxPoint x="169" y="1520.08" as="sourcePoint" />
            <mxPoint x="332" y="1520.08" as="targetPoint" />
            <Array as="points">
              <mxPoint x="207.89" y="1520" />
            </Array>
          </mxGeometry>
        </mxCell>
        <mxCell id="547G3fy2JJTA3OfubOqT-138" value="accept" style="edgeLabel;html=1;align=center;verticalAlign=middle;resizable=0;points=[];" vertex="1" connectable="0" parent="547G3fy2JJTA3OfubOqT-137">
          <mxGeometry x="0.0427" y="1" relative="1" as="geometry">
            <mxPoint x="-3" y="17" as="offset" />
          </mxGeometry>
        </mxCell>
        <mxCell id="547G3fy2JJTA3OfubOqT-139" value="" style="endArrow=classic;html=1;rounded=0;" edge="1" parent="1">
          <mxGeometry width="50" height="50" relative="1" as="geometry">
            <mxPoint x="352.5" y="1520.08" as="sourcePoint" />
            <mxPoint x="515.5" y="1520.08" as="targetPoint" />
            <Array as="points">
              <mxPoint x="391.39" y="1520" />
            </Array>
          </mxGeometry>
        </mxCell>
        <mxCell id="547G3fy2JJTA3OfubOqT-140" value="accept" style="edgeLabel;html=1;align=center;verticalAlign=middle;resizable=0;points=[];" vertex="1" connectable="0" parent="547G3fy2JJTA3OfubOqT-139">
          <mxGeometry x="0.0427" y="1" relative="1" as="geometry">
            <mxPoint x="-3" y="17" as="offset" />
          </mxGeometry>
        </mxCell>
        <mxCell id="547G3fy2JJTA3OfubOqT-142" value="" style="endArrow=classic;html=1;rounded=0;" edge="1" parent="1">
          <mxGeometry width="50" height="50" relative="1" as="geometry">
            <mxPoint x="529" y="1520.08" as="sourcePoint" />
            <mxPoint x="692" y="1520.08" as="targetPoint" />
            <Array as="points">
              <mxPoint x="567.89" y="1520" />
            </Array>
          </mxGeometry>
        </mxCell>
        <mxCell id="547G3fy2JJTA3OfubOqT-143" value="accept" style="edgeLabel;html=1;align=center;verticalAlign=middle;resizable=0;points=[];" vertex="1" connectable="0" parent="547G3fy2JJTA3OfubOqT-142">
          <mxGeometry x="0.0427" y="1" relative="1" as="geometry">
            <mxPoint x="-3" y="17" as="offset" />
          </mxGeometry>
        </mxCell>
        <mxCell id="547G3fy2JJTA3OfubOqT-144" value="Crane" style="rounded=1;whiteSpace=wrap;html=1;" vertex="1" parent="1">
          <mxGeometry x="555" y="1680" width="120" height="60" as="geometry" />
        </mxCell>
        <mxCell id="547G3fy2JJTA3OfubOqT-145" value="Staitrainer (rest)" style="rounded=1;whiteSpace=wrap;html=1;" vertex="1" parent="1">
          <mxGeometry x="190" y="1680" width="120" height="60" as="geometry" />
        </mxCell>
        <mxCell id="547G3fy2JJTA3OfubOqT-146" value="Staintrainer(suwnica)&lt;br&gt;(1 for a field)" style="rounded=1;whiteSpace=wrap;html=1;" vertex="1" parent="1">
          <mxGeometry x="375" y="1680" width="120" height="60" as="geometry" />
        </mxCell>
        <mxCell id="547G3fy2JJTA3OfubOqT-148" value="" style="rounded=0;whiteSpace=wrap;html=1;" vertex="1" parent="1">
          <mxGeometry x="430" y="1760" width="10" height="770" as="geometry" />
        </mxCell>
        <mxCell id="547G3fy2JJTA3OfubOqT-149" value="" style="rounded=0;whiteSpace=wrap;html=1;" vertex="1" parent="1">
          <mxGeometry x="610" y="1760" width="10" height="780" as="geometry" />
        </mxCell>
        <mxCell id="547G3fy2JJTA3OfubOqT-150" value="" style="rounded=0;whiteSpace=wrap;html=1;" vertex="1" parent="1">
          <mxGeometry x="245" y="1760" width="10" height="780" as="geometry" />
        </mxCell>
        <mxCell id="547G3fy2JJTA3OfubOqT-152" value="container rearrangement" style="text;html=1;strokeColor=none;fillColor=none;align=center;verticalAlign=middle;whiteSpace=wrap;rounded=0;" vertex="1" parent="1">
          <mxGeometry x="78" y="1630" width="162" height="30" as="geometry" />
        </mxCell>
        <mxCell id="547G3fy2JJTA3OfubOqT-157" value="" style="endArrow=classic;html=1;rounded=0;" edge="1" parent="1">
          <mxGeometry width="50" height="50" relative="1" as="geometry">
            <mxPoint x="440" y="2112.08" as="sourcePoint" />
            <mxPoint x="603" y="2112.08" as="targetPoint" />
            <Array as="points">
              <mxPoint x="478.89" y="2112" />
            </Array>
          </mxGeometry>
        </mxCell>
        <mxCell id="547G3fy2JJTA3OfubOqT-158" value="msg: look for crane&lt;br style=&quot;border-color: var(--border-color);&quot;&gt;Call for proposal" style="edgeLabel;html=1;align=center;verticalAlign=middle;resizable=0;points=[];" vertex="1" connectable="0" parent="547G3fy2JJTA3OfubOqT-157">
          <mxGeometry x="0.0427" y="1" relative="1" as="geometry">
            <mxPoint x="-3" y="17" as="offset" />
          </mxGeometry>
        </mxCell>
        <mxCell id="547G3fy2JJTA3OfubOqT-161" value="" style="endArrow=classic;html=1;rounded=0;exitX=-0.028;exitY=0.402;exitDx=0;exitDy=0;exitPerimeter=0;entryX=-0.112;entryY=0.486;entryDx=0;entryDy=0;entryPerimeter=0;" edge="1" parent="1">
          <mxGeometry width="50" height="50" relative="1" as="geometry">
            <mxPoint x="610" y="2150" as="sourcePoint" />
            <mxPoint x="609" y="2181" as="targetPoint" />
            <Array as="points">
              <mxPoint x="595" y="2150" />
              <mxPoint x="585" y="2161" />
              <mxPoint x="585" y="2171" />
              <mxPoint x="595" y="2181" />
            </Array>
          </mxGeometry>
        </mxCell>
        <mxCell id="547G3fy2JJTA3OfubOqT-162" value="Calculate cost" style="text;html=1;strokeColor=none;fillColor=none;align=center;verticalAlign=middle;whiteSpace=wrap;rounded=0;" vertex="1" parent="1">
          <mxGeometry x="525" y="2151" width="59" height="30" as="geometry" />
        </mxCell>
        <mxCell id="547G3fy2JJTA3OfubOqT-163" value="" style="endArrow=classic;html=1;rounded=0;" edge="1" parent="1">
          <mxGeometry width="50" height="50" relative="1" as="geometry">
            <mxPoint x="606.5" y="2210" as="sourcePoint" />
            <mxPoint x="441.5" y="2210" as="targetPoint" />
            <Array as="points" />
          </mxGeometry>
        </mxCell>
        <mxCell id="547G3fy2JJTA3OfubOqT-164" value="msg: cost&lt;br style=&quot;border-color: var(--border-color);&quot;&gt;reject/propose" style="edgeLabel;html=1;align=center;verticalAlign=middle;resizable=0;points=[];" vertex="1" connectable="0" parent="547G3fy2JJTA3OfubOqT-163">
          <mxGeometry x="0.0427" y="1" relative="1" as="geometry">
            <mxPoint x="6" y="19" as="offset" />
          </mxGeometry>
        </mxCell>
        <mxCell id="547G3fy2JJTA3OfubOqT-174" value="" style="endArrow=classic;html=1;rounded=0;exitX=-0.028;exitY=0.402;exitDx=0;exitDy=0;exitPerimeter=0;entryX=-0.112;entryY=0.486;entryDx=0;entryDy=0;entryPerimeter=0;" edge="1" parent="1">
          <mxGeometry width="50" height="50" relative="1" as="geometry">
            <mxPoint x="429.5" y="1790" as="sourcePoint" />
            <mxPoint x="428.5" y="1821" as="targetPoint" />
            <Array as="points">
              <mxPoint x="414.5" y="1790" />
              <mxPoint x="404.5" y="1801" />
              <mxPoint x="404.5" y="1811" />
              <mxPoint x="414.5" y="1821" />
            </Array>
          </mxGeometry>
        </mxCell>
        <mxCell id="547G3fy2JJTA3OfubOqT-175" value="Calculate cost of internal operation" style="text;html=1;strokeColor=none;fillColor=none;align=center;verticalAlign=middle;whiteSpace=wrap;rounded=0;" vertex="1" parent="1">
          <mxGeometry x="317" y="1791" width="87.5" height="30" as="geometry" />
        </mxCell>
        <mxCell id="547G3fy2JJTA3OfubOqT-178" value="" style="endArrow=classic;html=1;rounded=0;exitX=-0.028;exitY=0.402;exitDx=0;exitDy=0;exitPerimeter=0;" edge="1" parent="1">
          <mxGeometry width="50" height="50" relative="1" as="geometry">
            <mxPoint x="430" y="1890" as="sourcePoint" />
            <mxPoint x="260" y="1890" as="targetPoint" />
            <Array as="points">
              <mxPoint x="415" y="1890" />
            </Array>
          </mxGeometry>
        </mxCell>
        <mxCell id="547G3fy2JJTA3OfubOqT-179" value="msg:give me cost&lt;br&gt;call for proposal" style="text;html=1;strokeColor=none;fillColor=none;align=center;verticalAlign=middle;whiteSpace=wrap;rounded=0;" vertex="1" parent="1">
          <mxGeometry x="307" y="1891" width="98" height="30" as="geometry" />
        </mxCell>
        <mxCell id="547G3fy2JJTA3OfubOqT-180" value="Only if other cost lower than internal" style="text;html=1;strokeColor=none;fillColor=none;align=center;verticalAlign=middle;whiteSpace=wrap;rounded=0;" vertex="1" parent="1">
          <mxGeometry x="62" y="2100" width="136" height="30" as="geometry" />
        </mxCell>
        <mxCell id="547G3fy2JJTA3OfubOqT-181" value="" style="endArrow=none;dashed=1;html=1;rounded=0;" edge="1" parent="1">
          <mxGeometry width="50" height="50" relative="1" as="geometry">
            <mxPoint y="2090" as="sourcePoint" />
            <mxPoint x="760.9090909090909" y="2090" as="targetPoint" />
          </mxGeometry>
        </mxCell>
        <mxCell id="547G3fy2JJTA3OfubOqT-182" value="" style="endArrow=classic;html=1;rounded=0;" edge="1" parent="1">
          <mxGeometry width="50" height="50" relative="1" as="geometry">
            <mxPoint x="255" y="1950.08" as="sourcePoint" />
            <mxPoint x="420" y="1950" as="targetPoint" />
            <Array as="points">
              <mxPoint x="293.89" y="1950" />
            </Array>
          </mxGeometry>
        </mxCell>
        <mxCell id="547G3fy2JJTA3OfubOqT-183" value="msg: cost&lt;br style=&quot;border-color: var(--border-color);&quot;&gt;reject/propose" style="edgeLabel;html=1;align=center;verticalAlign=middle;resizable=0;points=[];" vertex="1" connectable="0" parent="547G3fy2JJTA3OfubOqT-182">
          <mxGeometry x="0.0427" y="1" relative="1" as="geometry">
            <mxPoint x="-3" y="17" as="offset" />
          </mxGeometry>
        </mxCell>
        <mxCell id="547G3fy2JJTA3OfubOqT-185" value="" style="endArrow=classic;html=1;rounded=0;exitX=-0.028;exitY=0.402;exitDx=0;exitDy=0;exitPerimeter=0;" edge="1" parent="1">
          <mxGeometry width="50" height="50" relative="1" as="geometry">
            <mxPoint x="430" y="2010" as="sourcePoint" />
            <mxPoint x="260" y="2010" as="targetPoint" />
            <Array as="points">
              <mxPoint x="415" y="2010" />
            </Array>
          </mxGeometry>
        </mxCell>
        <mxCell id="547G3fy2JJTA3OfubOqT-186" value="to all more expensive than me&lt;br&gt;reject proposal" style="text;html=1;strokeColor=none;fillColor=none;align=center;verticalAlign=middle;whiteSpace=wrap;rounded=0;" vertex="1" parent="1">
          <mxGeometry x="261.5" y="2020" width="165" height="30" as="geometry" />
        </mxCell>
        <mxCell id="547G3fy2JJTA3OfubOqT-188" value="" style="endArrow=classic;html=1;rounded=0;exitX=-0.028;exitY=0.402;exitDx=0;exitDy=0;exitPerimeter=0;entryX=-0.112;entryY=0.486;entryDx=0;entryDy=0;entryPerimeter=0;" edge="1" parent="1">
          <mxGeometry width="50" height="50" relative="1" as="geometry">
            <mxPoint x="430" y="2230" as="sourcePoint" />
            <mxPoint x="429" y="2261" as="targetPoint" />
            <Array as="points">
              <mxPoint x="415" y="2230" />
              <mxPoint x="405" y="2241" />
              <mxPoint x="405" y="2251" />
              <mxPoint x="415" y="2261" />
            </Array>
          </mxGeometry>
        </mxCell>
        <mxCell id="547G3fy2JJTA3OfubOqT-189" value="Find best offer" style="text;html=1;strokeColor=none;fillColor=none;align=center;verticalAlign=middle;whiteSpace=wrap;rounded=0;" vertex="1" parent="1">
          <mxGeometry x="345" y="2231" width="59" height="30" as="geometry" />
        </mxCell>
        <mxCell id="547G3fy2JJTA3OfubOqT-190" value="" style="endArrow=classic;html=1;rounded=0;" edge="1" parent="1">
          <mxGeometry width="50" height="50" relative="1" as="geometry">
            <mxPoint x="442.5" y="2270.08" as="sourcePoint" />
            <mxPoint x="605.5" y="2270.08" as="targetPoint" />
            <Array as="points">
              <mxPoint x="481.39" y="2270" />
            </Array>
          </mxGeometry>
        </mxCell>
        <mxCell id="547G3fy2JJTA3OfubOqT-191" value="reject to all except best offers&lt;br&gt;(or all if internal is best)" style="edgeLabel;html=1;align=center;verticalAlign=middle;resizable=0;points=[];" vertex="1" connectable="0" parent="547G3fy2JJTA3OfubOqT-190">
          <mxGeometry x="0.0427" y="1" relative="1" as="geometry">
            <mxPoint x="-3" y="17" as="offset" />
          </mxGeometry>
        </mxCell>
        <mxCell id="547G3fy2JJTA3OfubOqT-194" value="" style="endArrow=none;dashed=1;html=1;rounded=0;" edge="1" parent="1">
          <mxGeometry width="50" height="50" relative="1" as="geometry">
            <mxPoint x="3.09" y="2360" as="sourcePoint" />
            <mxPoint x="763.9990909090909" y="2360" as="targetPoint" />
          </mxGeometry>
        </mxCell>
        <mxCell id="547G3fy2JJTA3OfubOqT-195" value="When other + crane is cheaper than internal" style="text;html=1;strokeColor=none;fillColor=none;align=center;verticalAlign=middle;whiteSpace=wrap;rounded=0;" vertex="1" parent="1">
          <mxGeometry x="54" y="2390" width="136" height="30" as="geometry" />
        </mxCell>
        <mxCell id="547G3fy2JJTA3OfubOqT-198" value="" style="endArrow=classic;html=1;rounded=0;exitX=-0.028;exitY=0.402;exitDx=0;exitDy=0;exitPerimeter=0;" edge="1" parent="1">
          <mxGeometry width="50" height="50" relative="1" as="geometry">
            <mxPoint x="429" y="2310" as="sourcePoint" />
            <mxPoint x="259" y="2310" as="targetPoint" />
            <Array as="points">
              <mxPoint x="414" y="2310" />
            </Array>
          </mxGeometry>
        </mxCell>
        <mxCell id="547G3fy2JJTA3OfubOqT-199" value="to all more expensive than me&lt;br&gt;reject proposal(including best crane cost)" style="text;html=1;strokeColor=none;fillColor=none;align=center;verticalAlign=middle;whiteSpace=wrap;rounded=0;" vertex="1" parent="1">
          <mxGeometry x="250" y="2320" width="190" height="30" as="geometry" />
        </mxCell>
        <mxCell id="547G3fy2JJTA3OfubOqT-200" value="" style="endArrow=classic;html=1;rounded=0;" edge="1" parent="1">
          <mxGeometry width="50" height="50" relative="1" as="geometry">
            <mxPoint x="442.5" y="2430.08" as="sourcePoint" />
            <mxPoint x="605.5" y="2430.08" as="targetPoint" />
            <Array as="points">
              <mxPoint x="481.39" y="2430" />
            </Array>
          </mxGeometry>
        </mxCell>
        <mxCell id="547G3fy2JJTA3OfubOqT-201" value="accept" style="edgeLabel;html=1;align=center;verticalAlign=middle;resizable=0;points=[];" vertex="1" connectable="0" parent="547G3fy2JJTA3OfubOqT-200">
          <mxGeometry x="0.0427" y="1" relative="1" as="geometry">
            <mxPoint x="-3" y="17" as="offset" />
          </mxGeometry>
        </mxCell>
        <mxCell id="547G3fy2JJTA3OfubOqT-202" value="" style="endArrow=classic;html=1;rounded=0;" edge="1" parent="1">
          <mxGeometry width="50" height="50" relative="1" as="geometry">
            <mxPoint x="420" y="2430" as="sourcePoint" />
            <mxPoint x="260" y="2430" as="targetPoint" />
            <Array as="points">
              <mxPoint x="420" y="2430" />
            </Array>
          </mxGeometry>
        </mxCell>
        <mxCell id="547G3fy2JJTA3OfubOqT-203" value="accept" style="edgeLabel;html=1;align=center;verticalAlign=middle;resizable=0;points=[];" vertex="1" connectable="0" parent="547G3fy2JJTA3OfubOqT-202">
          <mxGeometry x="0.0427" y="1" relative="1" as="geometry">
            <mxPoint x="-3" y="17" as="offset" />
          </mxGeometry>
        </mxCell>
      </root>
    </mxGraphModel>
  </diagram>
</mxfile>
